<svg xmlns="http://www.w3.org/2000/svg" width="360" height="72" viewBox="0 0 360 72" role="img" aria-labelledby="title">
  <title id="title">Support Lumin on Afdian</title>
  <rect width="360" height="72" rx="24" fill="#8b5cf6"/>
  <path d="M54 20c8 0 14 6 14 14v6c0 10-8 17-18 17H39c-5 0-9-4-9-9 0-6 5-10 11-10h5v-4c0-8 6-14 14-14h-6Zm-8 26h-5c-2 0-3 1-3 3 0 1 1 2 2 2h10c5 0 10-4 10-10v-7c0-3-3-6-6-6-4 0-8 3-8 7v11Z" fill="#ede9fe"/>
  <text x="86" y="46" fill="#fff" font-family="-apple-system,BlinkMacSystemFont,'Segoe UI',sans-serif" font-size="25" font-weight="650">Support on Afdian</text>
</svg>
